<svg width="32" height="32" viewBox="0 0 32 32" fill="none" xmlns="http://www.w3.org/2000/svg">
<path d="M22.8356 22.3641L22.3642 22.8354C22.1038 23.0958 21.6818 23.0959 21.4214 22.8355L16.0002 17.4143L10.5791 22.8355C10.3188 23.0958 9.89663 23.0958 9.63628 22.8354L9.16492 22.3641C8.90456 22.1037 8.90456 21.6816 9.16485 21.4213L14.586 16.0001L9.16488 10.579C8.90453 10.3186 8.90454 9.89648 9.1649 9.63613L9.63625 9.16477C9.89661 8.90441 10.3187 8.9044 10.5791 9.16475L16.0002 14.5859L21.4214 9.16474C21.6817 8.90439 22.1039 8.90441 22.3642 9.16476L22.8356 9.63612C23.0959 9.89648 23.096 10.3186 22.8356 10.5789L17.4145 16.0001L22.8356 21.4213C23.096 21.6816 23.0959 22.1037 22.8356 22.3641Z" fill="#0D0D0D"/>
</svg>
