<svg width="92" height="19" viewBox="0 0 92 19" fill="none" xmlns="http://www.w3.org/2000/svg">
<g clip-path="url(#clip0_8205_93)">
<path d="M9.0709 0.612345C9.41465 -0.204116 10.5854 -0.204115 10.9292 0.612347L12.9579 5.43125C13.1029 5.77545 13.4306 6.01063 13.8067 6.04042L19.0727 6.4575C19.9649 6.52816 20.3267 7.62815 19.6469 8.20342L15.6348 11.5987C15.3483 11.8413 15.223 12.2218 15.3106 12.5844L16.5364 17.661C16.744 18.5212 15.7969 19.2011 15.033 18.7402L10.5246 16.0196C10.2025 15.8253 9.79753 15.8253 9.4755 16.0196L4.967 18.7402C4.20312 19.2011 3.25596 18.5212 3.46364 17.661L4.68943 12.5844C4.77699 12.2218 4.65183 11.8413 4.36527 11.5987L0.353063 8.20342C-0.326719 7.62815 0.035068 6.52816 0.927293 6.4575L6.19337 6.04042C6.56952 6.01063 6.89717 5.77545 7.04209 5.43125L9.0709 0.612345Z" fill="#D6EBDF"/>
<path d="M33.071 0.612345C33.4147 -0.204116 34.5855 -0.204115 34.9292 0.612347L36.958 5.43125C37.103 5.77545 37.4307 6.01063 37.8068 6.04042L43.0728 6.4575C43.965 6.52816 44.3268 7.62815 43.647 8.20342L39.6349 11.5987C39.3483 11.8413 39.2231 12.2218 39.3107 12.5844L40.5364 17.661C40.7441 18.5212 39.797 19.2011 39.0331 18.7402L34.5246 16.0196C34.2026 15.8253 33.7976 15.8253 33.4756 16.0196L28.9671 18.7402C28.2032 19.2011 27.256 18.5212 27.4637 17.661L28.6895 12.5844C28.7771 12.2218 28.6519 11.8413 28.3653 11.5987L24.3531 8.20342C23.6733 7.62815 24.0351 6.52816 24.9274 6.4575L30.1934 6.04042C30.5696 6.01063 30.8972 5.77545 31.0421 5.43125L33.071 0.612345Z" fill="#D6EBDF"/>
<path d="M57.071 0.612345C57.4148 -0.204116 58.5855 -0.204115 58.9293 0.612347L60.958 5.43125C61.1031 5.77545 61.4307 6.01063 61.8068 6.04042L67.0728 6.4575C67.9651 6.52816 68.3268 7.62815 67.6471 8.20342L63.6349 11.5987C63.3484 11.8413 63.2232 12.2218 63.3107 12.5844L64.5365 17.661C64.7442 18.5212 63.7971 19.2011 63.0332 18.7402L58.5247 16.0196C58.2027 15.8253 57.7977 15.8253 57.4756 16.0196L52.9671 18.7402C52.2032 19.2011 51.2561 18.5212 51.4638 17.661L52.6896 12.5844C52.7771 12.2218 52.652 11.8413 52.3654 11.5987L48.3532 8.20342C47.6734 7.62815 48.0352 6.52816 48.9274 6.4575L54.1935 6.04042C54.5696 6.01063 54.8973 5.77545 55.0422 5.43125L57.071 0.612345Z" fill="#D6EBDF"/>
<path d="M81.0708 0.612345C81.4146 -0.204116 82.5854 -0.204115 82.9291 0.612347L84.9579 5.43125C85.1029 5.77545 85.4305 6.01063 85.8066 6.04042L91.0727 6.4575C91.9649 6.52816 92.3267 7.62815 91.6469 8.20342L87.6348 11.5987C87.3482 11.8413 87.223 12.2218 87.3105 12.5844L88.5363 17.661C88.744 18.5212 87.7969 19.2011 87.033 18.7402L82.5245 16.0196C82.2025 15.8253 81.7975 15.8253 81.4754 16.0196L76.9669 18.7402C76.2031 19.2011 75.2559 18.5212 75.4636 17.661L76.6894 12.5844C76.7769 12.2218 76.6518 11.8413 76.3652 11.5987L72.353 8.20342C71.6732 7.62815 72.035 6.52816 72.9272 6.4575L78.1933 6.04042C78.5695 6.01063 78.8971 5.77545 79.042 5.43125L81.0708 0.612345Z" fill="#D6EBDF"/>
</g>
<defs>
<clipPath id="clip0_8205_93">
<rect width="91.9998" height="18.8889" fill="white"/>
</clipPath>
</defs>
</svg>
